"""""""" The.Fourth.Kind.2009.DVDRiP.XviD.SWESUB-Zen_Bud.avi """""""""

Format                           : AVI
Format profile                   : OpenDML
File size                        : 1.37 GiB
Duration                         : 1h 33mn
Overall bit rate                 : 2 081 Kbps
Writing application              : AVI-Mux GUI 1.17.8.3

Video

Format                           : MPEG-4 Visual
Codec ID/Hint                    : XviD
Duration                         : 1h 33mn
Bit rate                         : 1 944 Kbps
Width                            : 688 pixels
Height                           : 384 pixels
Display aspect ratio             : 16:9
Stream size                      : 1.28 GiB (93%)
Writing library                  : XviD 1.2.0.dev47 (UTC 2006-11-01)

Audio

Format                           : MPEG Audio
Codec ID/Hint                    : MP3
Duration                         : 1h 33mn
Bit rate                         : 128 Kbps
Channel(s)                       : 2 channels
Sampling rate                    : 48.0 KHz
Stream size                      : 86.1 MiB (6%)
Writing library                  : LAME3.97 


A thriller involving an ongoing unsolved mystery in Alaska, where one town has seen an extraordinary number of unexplained disappearances during the past 40 years and there are accusations of a federal cover up. 